<svg xmlns="http://www.w3.org/2000/svg" width="200" height="200" viewBox="0 0 200 200" version="1.1">
	<path d="M 82 26.883 C 72.946 29.492, 68.539 31.522, 60.797 36.651 C 49.162 44.358, 38.931 57.167, 33.327 71.043 C 25.653 90.042, 26.447 116.176, 35.222 133.424 L 37.218 137.348 50.609 96.924 C 57.974 74.691, 65.393 52, 67.095 46.500 C 68.798 41, 70.492 36.178, 70.860 35.786 C 71.228 35.393, 81.647 53.929, 94.014 76.978 C 106.382 100.026, 116.777 118.573, 117.116 118.192 C 117.455 117.812, 123.407 99.950, 130.343 78.500 L 142.953 39.500 140.314 37.332 C 137.126 34.715, 128.705 30.518, 121.092 27.752 C 112.860 24.762, 91.046 24.277, 82 26.883 M 154.684 57.598 C 136.196 115.050, 121.635 159.770, 121.094 160.763 C 120.689 161.507, 111.188 144.783, 97.953 120.031 C 85.604 96.934, 75.257 78.028, 74.960 78.018 C 74.663 78.008, 68.823 95.160, 61.982 116.134 L 49.545 154.269 54.009 158.230 C 59.919 163.475, 69.972 169.320, 78 172.180 C 83.731 174.222, 86.334 174.496, 100 174.496 C 113.666 174.496, 116.269 174.222, 122 172.180 C 132.355 168.491, 141.862 162.335, 150 154.051 C 161.416 142.429, 167.688 130.492, 170.689 114.679 C 172.536 104.945, 171.999 88.664, 169.529 79.500 C 167.789 73.048, 161.252 59.019, 158.157 55.098 L 156.262 52.696 154.684 57.598" stroke="none" fill="black" fill-rule="evenodd"/>
</svg>